<?xml version="1.0" encoding="UTF-8"?>
<svg id="Layer_1" xmlns="http://www.w3.org/2000/svg" version="1.1" viewBox="0 0 12.9 12.4">
  <!-- Generator: Adobe Illustrator 30.3.0, SVG Export Plug-In . SVG Version: 2.1.3 Build 182)  -->
  <defs>
    <style>
      .st0 {
        fill: #ff64ad;
      }

      .st1 {
        fill: #ff4f6e;
      }

      .st2 {
        fill: #ff9a42;
      }

      .st3 {
        fill: #ffa6b8;
      }

      .st4 {
        fill: #ffba48;
      }

      .st5 {
        fill: #ffc7bd;
      }
    </style>
  </defs>
  <path class="st3" d="M4.3,9l.8-1.1-4.5.5c0,.1,0,.3,0,.4.3.9,1.3,1.5,2.3,1.2.6-.2,1-.5,1.4-1h0Z"/>
  <path class="st5" d="M2.7,9.3c.6-.2,1.1-.4,1.4-.7l.9-.6,1.4-1.9-2.1-1.6-1.4.5c-.5-.2-1.1-.2-1.7,0C.3,5.2-.2,6.2,0,7.2c.1.3.3.6.5.8,0,.2,0,.4,0,.5.4.7,1.3,1.1,2.1.8Z"/>
  <path class="st3" d="M2.9,4.9l1.3.4L2.3,1.2c-.1,0-.2.1-.3.2-.8.6-1,1.7-.4,2.5.3.5.8.8,1.4,1h0Z"/>
  <path class="st5" d="M2.2,3.4c.3.5.7.9,1.1,1.2l.9.7,2.2.7.9-2.5-.9-1.2c0-.6-.2-1.1-.5-1.6C5.3,0,4.2-.2,3.4.3c-.3.2-.5.4-.6.7-.2,0-.4,0-.5.1-.5.6-.6,1.5-.1,2.2h0Z"/>
  <path class="st3" d="M6.4,2.3v1.4s3.3-3.1,3.3-3.1c0,0-.2-.2-.3-.3-.8-.6-1.9-.4-2.5.4-.3.5-.5,1-.5,1.6Z"/>
  <path class="st5" d="M7.6,1.2c-.3.5-.6,1-.8,1.4l-.4,1.1v2.4s2.6,0,2.6,0l.9-1.2c.5-.2,1-.5,1.4-1,.6-.8.4-1.9-.4-2.5-.3-.2-.6-.3-.9-.3,0-.2-.2-.3-.3-.5-.8-.3-1.7,0-2.2.6h0Z"/>
  <path class="st3" d="M10,4.9l-1.3.4,3.9,2.2c0-.1.1-.2.2-.4.3-.9-.2-2-1.2-2.3-.6-.2-1.1-.2-1.7,0h0Z"/>
  <path class="st5" d="M11.4,5.6c-.6-.2-1.1-.3-1.6-.3h-1.1s-2.2.7-2.2.7l.8,2.5,1.4.5c.3.4.8.8,1.4,1,.9.3,2-.2,2.3-1.2.1-.3.1-.6,0-.9.1-.1.2-.3.3-.4,0-.8-.4-1.6-1.2-1.9Z"/>
  <path class="st3" d="M8.6,9l-.8-1.1-.9,4.4c.1,0,.3,0,.4,0,1,0,1.8-.8,1.8-1.8,0-.6-.2-1.1-.5-1.6h0Z"/>
  <path class="st5" d="M8.3,10.6c0-.6,0-1.1-.2-1.6l-.3-1.1-1.4-1.9-2.2,3c-.3.4-.5,1-.5,1.6,0,1,.8,1.8,1.8,1.8s.6,0,.9-.2c.2,0,.3.2.5.2.8-.2,1.4-.9,1.4-1.8h0Z"/>
  <path class="st4" d="M6.2,7h.4v2h-.4v-2Z"/>
  <path class="st4" d="M7.3,6.5v-.4c.1,0,2,.6,2,.6v.4c-.1,0-2-.6-2-.6Z"/>
  <path class="st4" d="M6.9,5.1l1.2-1.6.3.2-1.2,1.6-.3-.2Z"/>
  <path class="st4" d="M4.5,3.8l.3-.2,1.2,1.6-.3.2-1.2-1.6Z"/>
  <path class="st4" d="M3.6,6.8l1.9-.6v.4c.1,0-1.8.6-1.8.6v-.4Z"/>
  <path class="st0" d="M8.7,5.3c-.4-.3-1-.4-1.5-.2,0-.6-.3-1.1-.7-1.4-.4.3-.7.8-.7,1.4-.6-.2-1.1,0-1.5.2.1.5.5.9,1.1,1.1-.3.5-.4,1.1-.3,1.5.5,0,1-.2,1.4-.7.4.5.9.7,1.4.7.2-.5,0-1.1-.3-1.5.6-.2,1-.6,1.1-1.1h0Z"/>
  <circle class="st1" cx="6.4" cy="6" r="1.2"/>
  <g>
    <circle class="st2" cx="6.4" cy="6" r=".4"/>
    <circle class="st2" cx="6.4" cy="9.2" r=".4"/>
    <circle class="st2" cx="9.5" cy="7" r=".4"/>
    <circle class="st2" cx="8.3" cy="3.5" r=".4"/>
    <circle class="st2" cx="4.6" cy="3.5" r=".4"/>
    <circle class="st2" cx="3.4" cy="7" r=".4"/>
  </g>
</svg>